<svg width="43" height="53" viewBox="0 0 43 53" fill="none" xmlns="http://www.w3.org/2000/svg">
<path d="M21.5 29.0416C25.7112 29.0416 29.125 25.6278 29.125 21.4166C29.125 17.2055 25.7112 13.7916 21.5 13.7916C17.2888 13.7916 13.875 17.2055 13.875 21.4166C13.875 25.6278 17.2888 29.0416 21.5 29.0416Z" stroke="black" stroke-width="2" stroke-linecap="round" stroke-linejoin="round"/>
<path d="M21.5003 1.08331C16.1076 1.08331 10.9357 3.22557 7.12249 7.03881C3.30925 10.852 1.16699 16.0239 1.16699 21.4166C1.16699 26.2255 2.18874 29.3721 4.97949 32.8542L21.5003 51.9167L38.0212 32.8542C40.8119 29.3721 41.8337 26.2255 41.8337 21.4166C41.8337 16.0239 39.6914 10.852 35.8782 7.03881C32.0649 3.22557 26.8931 1.08331 21.5003 1.08331V1.08331Z" stroke="black" stroke-width="2" stroke-linecap="round" stroke-linejoin="round"/>
</svg>
