<svg width="61" height="61" viewBox="0 0 61 61" fill="none" xmlns="http://www.w3.org/2000/svg">
<path d="M50.8337 27.9558H55.917C55.917 14.9171 46.0731 5.08334 33.0166 5.08334V10.1667C43.3409 10.1667 50.8337 17.6468 50.8337 27.9558Z" fill="black"/>
<path d="M33.0414 20.3333C38.3865 20.3333 40.6664 22.6132 40.6664 27.9583H45.7497C45.7497 19.7614 41.2383 15.25 33.0414 15.25V20.3333ZM41.739 34.1676C41.2506 33.7237 40.6088 33.487 39.9492 33.5074C39.2895 33.5278 38.6636 33.8037 38.2035 34.2769L32.1213 40.5319C30.6573 40.2524 27.7141 39.3348 24.6844 36.3128C21.6547 33.2806 20.7372 30.3297 20.4652 28.8759L26.7152 22.7911C27.189 22.3314 27.4653 21.7054 27.4857 21.0455C27.5061 20.3857 27.269 19.7438 26.8245 19.2557L17.433 8.92886C16.9883 8.43923 16.3703 8.14223 15.7102 8.10094C15.05 8.05965 14.3998 8.27733 13.8976 8.70774L8.38216 13.4378C7.94273 13.8788 7.68045 14.4658 7.64507 15.0873C7.60695 15.7227 6.88003 30.7745 18.5514 42.4509C28.7333 52.6303 41.4874 53.375 44.9999 53.375C45.5134 53.375 45.8285 53.3597 45.9124 53.3547C46.5339 53.3199 47.1205 53.0564 47.5594 52.615L52.2869 47.0971C52.7176 46.5952 52.9357 45.9451 52.8949 45.285C52.8541 44.6249 52.5576 44.0066 52.0683 43.5616L41.739 34.1676V34.1676Z" fill="black"/>
</svg>
