<svg width="112" height="112" viewBox="0 0 112 112" fill="none" xmlns="http://www.w3.org/2000/svg">
<path d="M87.185 12.5317C82.8415 9.73 80.0923 10.934 78.757 12.0207C77.2608 11.0127 75.7593 10.1675 74.27 9.57425C70.1715 7.93975 63.5093 7 56 7C48.4873 7 41.8285 7.93975 37.7283 9.576C36.239 10.1693 34.734 11.0162 33.2378 12.0242C31.899 10.9392 29.155 9.74225 24.815 12.5405C15.4018 18.6025 -4.76346 16.1997 7.17329 42.3307C9.09129 46.5255 10.5683 49.49 11.865 51.1385C11.746 66.2935 16.7388 86.135 26.6525 92.5785C38.4528 100.247 47.6245 105 56.875 105C66.122 105 75.2955 100.247 87.094 92.5768C97.1495 86.0458 100.84 65.8472 100.287 50.932C101.546 49.2503 102.984 46.3558 104.827 42.322C116.762 16.191 96.5983 18.5937 87.185 12.5317V12.5317ZM85.1865 89.6437C73.9235 96.9622 65.2593 101.5 56.875 101.5C48.489 101.5 39.823 96.9622 28.56 89.6437C20.1653 84.1872 15.54 66.0747 15.3983 52.0642C16.9575 50.6765 18.6375 46.8265 21.021 40.2605C22.9618 34.909 22.8935 30.877 23.3818 27.2562C27.8583 20.8285 33.6998 14.952 39.0268 12.8257C42.672 11.3697 49.0193 10.5 56 10.5C62.9808 10.5 69.3245 11.3697 72.975 12.8257C78.3038 14.952 84.1488 20.832 88.6218 27.2633C89.1065 30.8788 89.0418 34.909 90.9808 40.2517C93.5235 47.2517 95.263 51.1647 96.9115 52.2935C97.2545 66.458 93.45 84.2747 85.1865 89.6437" fill="black"/>
<path d="M42.4356 53.7792C42.4356 47.495 37.3326 42.3832 31.0605 42.3832C24.7885 42.3832 19.6855 47.495 19.6855 53.7792C19.6855 60.0652 24.7885 65.1787 31.0605 65.1787C37.3326 65.1787 42.4356 60.0652 42.4356 53.7792ZM23.938 60.2472C25.2544 61.1746 26.8253 61.6722 28.4355 61.6717C32.7843 61.6717 36.3105 58.1402 36.3105 53.7792C36.3124 51.6886 35.4838 49.6829 34.007 48.2032C32.5302 46.7234 30.5261 45.8908 28.4355 45.8885C26.759 45.8885 25.2138 46.4222 23.9363 47.3165C24.8341 46.3159 25.9324 45.5153 27.1598 44.9669C28.3871 44.4185 29.7162 44.1344 31.0605 44.1332C36.3666 44.1332 40.6856 48.461 40.6856 53.7792C40.6856 59.0992 36.3666 63.4287 31.0605 63.4287C29.7166 63.4275 28.388 63.1436 27.1609 62.5955C25.9339 62.0474 24.8358 61.2473 23.938 60.2472Z" fill="black"/>
<path d="M80.9375 42.3832C74.6655 42.3832 69.5625 47.495 69.5625 53.7792C69.5625 60.0652 74.6655 65.1787 80.9375 65.1787C87.2095 65.1787 92.3125 60.0652 92.3125 53.7792C92.3125 47.4967 87.2095 42.3832 80.9375 42.3832ZM80.9375 63.4287C75.6333 63.4287 71.3125 59.0992 71.3125 53.7792C71.3125 48.461 75.6333 44.1332 80.9375 44.1332C83.7638 44.1332 86.2995 45.367 88.0635 47.3165C86.7463 46.3878 85.1742 45.889 83.5625 45.8885C81.4719 45.8908 79.4678 46.7234 77.991 48.2032C76.5142 49.6829 75.6856 51.6886 75.6875 53.7792C75.6864 54.8146 75.8891 55.8399 76.2843 56.7969C76.6794 57.7538 77.2591 58.6236 77.9904 59.3565C78.7217 60.0893 79.5901 60.671 80.5462 61.0683C81.5022 61.4655 82.5272 61.6706 83.5625 61.6717C85.2373 61.6717 86.786 61.1397 88.06 60.2472C87.1625 61.2476 86.0644 62.0478 84.8373 62.596C83.6102 63.1441 82.2815 63.4278 80.9375 63.4287Z" fill="black"/>
<path d="M71.8463 60.8598C68.0961 56.9555 62.3211 54.7155 55.9948 54.7155C49.6738 54.7155 43.9023 56.9538 40.1626 60.8615L27.6571 73.9498C23.7966 77.9905 23.7966 84.5618 27.6571 88.606C29.5366 90.5713 32.0426 91.6545 34.7113 91.6545C36.8894 91.6519 39.0025 90.9124 40.7068 89.5563L45.4616 94.535C47.9606 97.1373 51.8018 98.6283 56.0018 98.6283C60.2001 98.6283 64.0378 97.1355 66.5298 94.5333L71.2916 89.5528C72.9948 90.9114 75.1084 91.6523 77.2871 91.6545C79.9558 91.6545 82.4618 90.5713 84.3448 88.6043C88.2001 84.5618 88.2001 77.9905 84.3448 73.9498L71.8463 60.8598ZM65.2663 93.3223C63.1068 95.5815 59.7258 96.8765 56.0036 96.8765C52.2761 96.8765 48.8933 95.5815 46.7268 93.324L41.9966 88.3698L46.6621 83.489L48.5136 81.5553C47.6806 83.9878 47.3831 85.995 47.6473 87.528C48.4751 92.3598 52.4388 94.521 56.0001 94.521C59.5631 94.521 63.5268 92.3598 64.3546 87.5298C64.6171 85.9933 64.3196 83.986 63.4866 81.5483L70.0053 88.3663L65.2663 93.3223ZM83.0779 87.395C82.3347 88.1859 81.4376 88.8166 80.4418 89.2481C79.446 89.6797 78.3724 89.903 77.2871 89.9045C75.2974 89.9045 73.4318 89.1328 71.9373 87.7748L71.8446 87.689C71.7313 87.5863 71.614 87.4882 71.4928 87.395L60.3873 75.7768L58.9891 74.312C58.2471 73.5385 57.1603 73.094 56.0001 73.094C54.8398 73.094 53.7531 73.5385 53.0146 74.3103L51.6128 75.7768L40.3796 87.5C40.3011 87.5617 40.2247 87.6259 40.1503 87.6925L40.0628 87.7748C38.5701 89.131 36.7046 89.9045 34.7113 89.9045C32.5238 89.9045 30.4676 89.012 28.9223 87.395C25.6988 84.0193 25.6988 78.5313 28.9223 75.1573L41.4278 62.0708C44.8368 58.5095 50.1481 56.4655 55.9948 56.4655C61.8451 56.4655 67.1633 58.5095 70.5811 62.069L83.0779 75.1573C86.2996 78.5313 86.2996 84.0228 83.0779 87.395Z" fill="black"/>
<path d="M56.0002 56.8942C50.3005 56.8942 45.6787 57.7832 45.6787 62.3945C45.6787 66.059 53.8897 69.3087 56.0002 69.3087C58.1072 69.3087 66.3235 66.059 66.3235 62.3945C66.3217 57.7832 61.7017 56.8942 56.0002 56.8942Z" fill="black"/>
<path d="M44.2979 68.2517L42.5479 66.4982L40.7979 68.2552L42.5479 70.0087L44.2979 68.2517Z" fill="black"/>
<path d="M38.3809 74.8282L36.6309 73.0782L38.3826 71.3265L40.1326 73.0765L38.3809 74.8282Z" fill="black"/>
<path d="M42.1104 74.8318L43.8604 76.5853L45.6104 74.8283L43.8604 73.0748L42.1104 74.8318Z" fill="black"/>
<path d="M67.7007 68.2517L69.4507 70.0087L71.2007 68.2552L69.4507 66.4982L67.7007 68.2517Z" fill="black"/>
<path d="M73.6172 74.8265L71.8672 73.073L73.6172 71.3248L75.3672 73.08L73.6172 74.8265Z" fill="black"/>
<path d="M66.3882 74.8283L68.1382 76.5853L69.8882 74.8318L68.1382 73.0748L66.3882 74.8283Z" fill="black"/>
</svg>
